<svg width="90" height="36" viewBox="0 0 90 36" fill="none" xmlns="http://www.w3.org/2000/svg">
<path d="M87.7288 15.2799L87.1333 14.7588L87.7288 14.2378L87.766 14.2005C89.2176 12.6745 89.9992 10.6646 89.9992 8.54306C89.9992 4.00219 86.3144 0.317383 81.7735 0.317383C77.2327 0.317383 73.5479 4.00219 73.5479 8.54306C73.5479 10.9252 74.59 13.1956 76.3394 14.7216C74.5528 16.2849 73.5479 18.5181 73.5479 20.9002C73.5479 25.4411 77.2327 29.1259 81.7735 29.1259C86.3144 29.1259 89.9992 25.4411 89.9992 20.9002C90.0364 18.8531 89.2176 16.8432 87.7288 15.2799ZM86.6122 18.1087C86.7983 18.4437 86.9844 18.7786 87.096 19.1136C87.3193 19.6719 87.3938 20.2674 87.431 20.863C87.431 21.4585 87.3566 22.054 87.2077 22.6495C86.8727 23.8034 86.1655 24.8455 85.1606 25.5899C84.6767 25.9622 84.1556 26.2599 83.5601 26.446C82.9646 26.6321 82.3691 26.7438 81.7735 26.781C81.178 26.781 80.5453 26.7066 79.9497 26.5205C79.3542 26.3344 78.7959 26.0366 78.312 25.7016C77.3071 24.9944 76.5255 23.9523 76.116 22.7612C75.9299 22.1657 75.8183 21.5329 75.8183 20.9002C75.8183 20.2674 75.8927 19.6347 76.116 19.0392C76.4883 17.8481 77.3071 16.7687 78.312 16.0243L81.7363 13.6795L84.1556 12.0045C84.1556 12.0045 84.1556 12.0045 84.1928 12.0045C84.9 11.5207 85.4956 10.7763 85.7933 9.95743C85.9422 9.54801 86.0166 9.10137 86.0539 8.6175C86.0539 8.17086 86.0166 7.72422 85.905 7.27757C85.6444 6.42151 85.1234 5.60266 84.3789 5.04436C84.0067 4.78382 83.5973 4.52327 83.1507 4.37439C82.704 4.22551 82.2574 4.15107 81.7735 4.11385C81.2897 4.11385 80.843 4.18829 80.3964 4.29995C79.9497 4.44883 79.5031 4.67215 79.1309 4.9327C78.3493 5.45378 77.7537 6.27263 77.456 7.20313C77.3071 7.64978 77.2327 8.13364 77.2327 8.6175C77.2327 9.10137 77.3071 9.58523 77.456 10.0319C77.5304 10.2552 77.6421 10.5157 77.7537 10.7018L78.5354 9.92021V12.6001H75.8927L77.0466 11.4462C76.8232 11.1113 76.6371 10.7391 76.5255 10.3669C76.3022 9.80855 76.2277 9.21303 76.1905 8.6175C76.1905 8.02198 76.2649 7.42646 76.4138 6.83093C76.7488 5.6771 77.456 4.63493 78.4609 3.92775C78.9448 3.55555 79.4659 3.25778 80.0614 3.07168C80.6569 2.88558 81.2524 2.77392 81.848 2.77392C82.4435 2.77392 83.0762 2.84836 83.6718 3.03446C84.2673 3.22056 84.8256 3.51833 85.3095 3.85331C86.3144 4.56049 87.096 5.60266 87.5055 6.79371C87.6916 7.38923 87.8032 8.02198 87.8032 8.65472C87.8032 9.28747 87.7288 9.92021 87.5055 10.5157C87.1333 11.7068 86.3144 12.7862 85.3095 13.5306C85.3095 13.5306 85.3095 13.5306 85.2722 13.5306L82.8529 15.1683L79.652 17.3643C79.652 17.3643 79.6148 17.3643 79.6148 17.4015L79.4286 17.5131C78.6842 17.997 78.0887 18.7414 77.791 19.5975C77.6421 20.0069 77.5676 20.4536 77.5304 20.9374C77.5304 21.3841 77.5676 21.8307 77.7165 22.2773C77.9771 23.1334 78.4981 23.9523 79.2425 24.5106C79.6148 24.7711 80.0242 25.0316 80.4708 25.1805C80.9175 25.3294 81.3641 25.4038 81.848 25.4411C82.3318 25.4411 82.7785 25.3666 83.2251 25.255C83.6718 25.1061 84.1184 24.8828 84.4906 24.6222C85.2722 24.1011 85.8678 23.2823 86.1655 22.3518C86.3144 21.9051 86.3888 21.4213 86.3888 20.9374C86.3888 20.4536 86.3144 19.9697 86.1655 19.523C86.0911 19.2997 86.0166 19.1136 85.905 18.9275L85.0489 19.7836V17.0665H87.6916L86.6122 18.1087ZM79.8009 8.54306C79.8009 7.46368 80.6941 6.57039 81.7735 6.57039C82.8529 6.57039 83.7462 7.46368 83.7462 8.54306C83.7462 9.17581 83.4484 9.77133 82.9646 10.1435L81.7735 10.9624L80.5825 10.1435C80.0986 9.77133 79.8009 9.17581 79.8009 8.54306ZM83.7834 20.9374C83.7834 22.0168 82.8901 22.9473 81.8108 22.9473C80.7314 22.9473 79.8381 22.054 79.8381 20.9374C79.8381 20.3047 80.1358 19.7464 80.6197 19.3369L81.8108 18.5181L83.0018 19.3369C83.4857 19.7464 83.7834 20.3419 83.7834 20.9374Z" fill="#31C4A8"/>
<path d="M15.707 22.1283C14.2926 23.2077 12.841 23.8777 10.8311 23.8777C6.81131 23.8777 3.87091 20.5278 3.87091 16.3964C3.87091 12.2277 6.77409 8.91512 10.8311 8.91512C12.6549 8.91512 14.1437 9.51065 15.4836 10.5156C16.228 11.0367 17.233 10.925 17.8285 10.2551L17.9402 10.1062C18.6101 9.32454 18.4613 8.17072 17.6424 7.57519C15.9303 6.34692 13.8459 5.52808 10.8683 5.52808C4.46643 5.52808 0 10.4039 0 16.3964C0 22.5005 4.5781 27.2647 10.6822 27.2647C13.8087 27.2647 16.0047 26.3342 17.8657 24.8082C18.6474 24.1754 18.6846 22.9844 17.9774 22.2772C17.3819 21.6817 16.4141 21.6072 15.707 22.1283Z" fill="#31C4A8"/>
<path d="M35.583 23.5432H26.2035V7.72454C26.2035 6.71959 25.3846 5.86353 24.3425 5.86353C23.3375 5.86353 22.4814 6.68237 22.4814 7.72454V25.2181C22.4814 26.1486 23.2259 26.9302 24.1936 26.9302H35.583C36.5135 26.9302 37.2579 26.1858 37.2579 25.2553C37.2579 24.3248 36.5135 23.5432 35.583 23.5432Z" fill="#31C4A8"/>
<path d="M42.6921 5.90063C41.6871 5.90063 40.8311 6.71948 40.8311 7.76165V25.1063C40.8311 26.1112 41.6499 26.9673 42.6921 26.9673C43.697 26.9673 44.5531 26.1485 44.5531 25.1063V7.72443C44.5531 6.71948 43.7342 5.90063 42.6921 5.90063Z" fill="#31C4A8"/>
<path d="M59.5901 21.7565L66.2525 11.8187V25.1063C66.2525 26.1112 67.0713 26.9301 68.0763 26.9301H68.1507C69.1557 26.9301 69.9745 26.1112 69.9745 25.1063V8.24551C69.9745 6.9428 68.9324 5.90063 67.6296 5.90063C66.6619 5.90063 65.7314 6.3845 65.2103 7.24056L59.6645 15.8757L54.1187 7.24056C53.5976 6.42172 52.6671 5.90063 51.6994 5.90063C50.3967 5.90063 49.3545 6.9428 49.3545 8.24551V25.1063C49.3545 26.1112 50.1733 26.9301 51.1783 26.9301C52.1832 26.9301 53.0021 26.1112 53.0021 25.1063V11.8931L59.5901 21.7565Z" fill="#31C4A8"/>
<path d="M22.8902 29.833C22.5925 29.833 22.3691 30.0563 22.3691 30.3169V35.0066C22.3691 35.2672 22.5925 35.4905 22.8902 35.4905C23.188 35.4905 23.4113 35.2672 23.4113 35.0066V30.3169C23.4113 30.0563 23.188 29.833 22.8902 29.833Z" fill="#31C4A8"/>
<path d="M32.9774 29.833C32.7169 29.833 32.4935 30.0563 32.4935 30.3169V33.7784L29.5531 30.0191C29.4415 29.9074 29.3298 29.833 29.1437 29.833H28.9948C28.6971 29.833 28.4365 30.0935 28.4365 30.3913V35.0811C28.4365 35.3416 28.6598 35.5649 28.9204 35.5649C29.1809 35.5649 29.4043 35.3416 29.4043 35.0811V31.5079L32.4563 35.3788C32.568 35.4905 32.7169 35.5649 32.8657 35.5649H32.9774C33.2379 35.5649 33.4613 35.3416 33.4613 35.0811V30.3169C33.4985 30.0563 33.2752 29.833 32.9774 29.833Z" fill="#31C4A8"/>
<path d="M42.915 29.833C42.6917 29.833 42.5055 29.9447 42.4311 30.168L40.8306 34.225L39.1929 30.168C39.1185 29.9819 38.9324 29.833 38.7091 29.833C38.3369 29.833 38.0763 30.2052 38.2252 30.5402L40.1607 35.1927C40.2723 35.4533 40.4957 35.6021 40.7934 35.6021C41.054 35.6021 41.3145 35.4533 41.4262 35.1927L43.3616 30.5402C43.5477 30.2052 43.2872 29.833 42.915 29.833Z" fill="#31C4A8"/>
<path d="M52.0341 34.6344H49.1681V33.1084H51.6247C51.8852 33.1084 52.0713 32.9223 52.0713 32.6617C52.0713 32.4012 51.8852 32.2151 51.6247 32.2151H49.1681V30.7263H51.9969C52.2574 30.7263 52.4435 30.5402 52.4435 30.2797C52.4435 30.0191 52.2574 29.833 51.9969 29.833H48.6098C48.3493 29.833 48.126 30.0563 48.126 30.3169V35.0811C48.126 35.3416 48.3493 35.5649 48.6098 35.5649H51.9969C52.2574 35.5649 52.4435 35.3788 52.4435 35.1183C52.518 34.8205 52.2946 34.6344 52.0341 34.6344Z" fill="#31C4A8"/>
<path d="M59.4406 32.2151C58.324 31.9545 58.0634 31.7684 58.0634 31.3218C58.0634 30.9124 58.3984 30.6146 58.9939 30.6146C59.4034 30.6146 59.8128 30.7263 60.2222 30.9868C60.4455 31.0985 60.7061 31.024 60.855 30.8379C61.0038 30.6146 60.9294 30.2796 60.7061 30.168C60.2222 29.9074 59.6639 29.7585 59.0312 29.7585C57.8773 29.7585 57.0585 30.4285 57.0585 31.3962C57.0585 32.4756 57.7657 32.8106 58.9939 33.1084C60.0733 33.3689 60.2967 33.5922 60.2967 34.0017C60.2967 34.4483 59.8872 34.7461 59.2545 34.7461C58.6962 34.7461 58.2123 34.56 57.7657 34.2622C57.5796 34.1133 57.319 34.1505 57.1329 34.3366L57.0957 34.3739C56.9096 34.56 56.9841 34.8949 57.2074 35.0438C57.8029 35.4532 58.5101 35.6393 59.2173 35.6393C60.4455 35.6393 61.3016 35.0066 61.3016 33.9272C61.3016 32.9595 60.6689 32.5128 59.4406 32.2151Z" fill="#31C4A8"/>
<path d="M69.6767 29.833H65.9175C65.6569 29.833 65.4336 30.0563 65.4336 30.2796C65.4336 30.5402 65.6569 30.7263 65.9175 30.7263H67.2946V35.0066C67.2946 35.3044 67.5179 35.5277 67.8157 35.5277C68.1135 35.5277 68.3368 35.3044 68.3368 35.0066V30.7635H69.7139C69.9745 30.7635 70.1978 30.5402 70.1978 30.3169C70.1233 30.0191 69.9372 29.833 69.6767 29.833Z" fill="#31C4A8"/>
</svg>
